<svg width="32" height="32" viewBox="0 0 32 32" fill="none" xmlns="http://www.w3.org/2000/svg">
<path d="M20.0972 2.66663H11.9172C4.4425 2.66663 2.6665 4.44396 2.6665 11.9026V20.084C2.6665 27.556 4.4305 29.3333 11.9025 29.3333H20.0838C27.5558 29.3333 29.3332 27.5693 29.3332 20.0973V11.9173C29.3332 4.44263 27.5692 2.66663 20.0972 2.66663ZM24.1945 21.6933H22.2492C21.5132 21.6933 21.2918 21.0973 19.9718 19.7773C18.8198 18.6666 18.3332 18.528 18.0412 18.528C17.6385 18.528 17.5278 18.6386 17.5278 19.1946V20.944C17.5278 21.4173 17.3745 21.6946 16.1385 21.6946C14.9392 21.6132 13.7763 21.2484 12.7453 20.6302C11.7143 20.012 10.8447 19.1581 10.2078 18.1386C8.6963 16.2593 7.64521 14.0526 7.1385 11.6946C7.1385 11.4026 7.24917 11.1386 7.80517 11.1386H9.7505C10.2505 11.1386 10.4305 11.3613 10.6252 11.8746C11.5692 14.6533 13.1798 17.0693 13.8332 17.0693C14.0838 17.0693 14.1932 16.9586 14.1932 16.3333V13.472C14.1105 12.1666 13.4172 12.056 13.4172 11.584C13.4261 11.4595 13.4831 11.3433 13.5762 11.2602C13.6693 11.1771 13.7911 11.1335 13.9158 11.1386H16.9718C17.3892 11.1386 17.5278 11.3466 17.5278 11.8466V15.708C17.5278 16.1253 17.7078 16.264 17.8332 16.264C18.0838 16.264 18.2772 16.1253 18.7358 15.6666C19.721 14.4652 20.5259 13.1267 21.1252 11.6933C21.1868 11.5214 21.3028 11.3742 21.4556 11.2741C21.6084 11.174 21.7896 11.1265 21.9718 11.1386H23.9172C24.4998 11.1386 24.6238 11.4306 24.4998 11.8466C23.7925 13.4312 22.9173 14.9354 21.8892 16.3333C21.6798 16.6533 21.5958 16.82 21.8892 17.1946C22.0825 17.4866 22.7638 18.056 23.2225 18.5973C23.8888 19.2624 24.4423 20.0316 24.8612 20.8746C25.0278 21.416 24.7492 21.6933 24.1945 21.6933Z" fill="#9582FF"/>
</svg>
