<svg width="32" height="32" viewBox="0 0 32 32" fill="none" xmlns="http://www.w3.org/2000/svg">
<path fill-rule="evenodd" clip-rule="evenodd" d="M15.9998 5.33337C17.1398 5.33337 18.3092 5.36271 19.4425 5.41071L20.7812 5.47471L22.0625 5.55071L23.2625 5.63204L24.3585 5.71737C25.5481 5.8079 26.6676 6.31529 27.5198 7.15018C28.372 7.98507 28.9022 9.0939 29.0172 10.2814L29.0705 10.848L29.1705 12.0614C29.2638 13.3187 29.3332 14.6894 29.3332 16C29.3332 17.3107 29.2638 18.6814 29.1705 19.9387L29.0705 21.152L29.0172 21.7187C28.9022 22.9064 28.3717 24.0154 27.5193 24.8503C26.6668 25.6852 25.547 26.1925 24.3572 26.2827L23.2638 26.3667L22.0638 26.4494L20.7812 26.5254L19.4425 26.5894C18.2956 26.6391 17.1478 26.6648 15.9998 26.6667C14.8519 26.6648 13.7041 26.6391 12.5572 26.5894L11.2185 26.5254L9.93717 26.4494L8.73717 26.3667L7.64117 26.2827C6.45159 26.1922 5.3321 25.6848 4.4799 24.8499C3.62769 24.015 3.09742 22.9062 2.9825 21.7187L2.92917 21.152L2.82917 19.9387C2.72761 18.6282 2.67336 17.3145 2.6665 16C2.6665 14.6894 2.73584 13.3187 2.82917 12.0614L2.92917 10.848L2.9825 10.2814C3.09738 9.09411 3.62745 7.98544 4.47939 7.15058C5.33132 6.31572 6.45049 5.8082 7.63984 5.71737L8.7345 5.63204L9.9345 5.55071L11.2172 5.47471L12.5558 5.41071C13.7032 5.36101 14.8514 5.33523 15.9998 5.33337ZM13.3332 12.7667V19.2334C13.3332 19.8494 13.9998 20.2334 14.5332 19.9267L20.1332 16.6934C20.255 16.6232 20.3562 16.5222 20.4266 16.4005C20.497 16.2788 20.5341 16.1406 20.5341 16C20.5341 15.8594 20.497 15.7213 20.4266 15.5996C20.3562 15.4779 20.255 15.3769 20.1332 15.3067L14.5332 12.0747C14.4115 12.0045 14.2735 11.9675 14.133 11.9675C13.9926 11.9676 13.8546 12.0046 13.7329 12.0748C13.6113 12.1451 13.5103 12.2462 13.4402 12.3679C13.37 12.4895 13.3331 12.6276 13.3332 12.768V12.7667Z" fill="#9582FF"/>
</svg>
